<svg version="1.1" xmlns="http://www.w3.org/2000/svg" xmlns:xlink="http://www.w3.org/1999/xlink" xml:space="preserve" xmlns:serif="http://www.serif.com/" style="fill-rule:evenodd;clip-rule:evenodd;stroke-linejoin:round;stroke-miterlimit:2;" viewBox="6.54 6.55 286.92 286.9">     <g id="Layer-1" serif:id="Layer 1" transform="matrix(1,0,0,1,-231.54,-375.82)">         <path id="path3794" d="M381.54,382.37C460.716,382.37 524.998,446.648 524.998,525.82C524.998,604.992 460.716,669.27 381.54,669.27C302.364,669.27 238.082,604.992 238.082,525.82C238.082,446.648 302.364,382.37 381.54,382.37ZM301.015,462.303C297.084,462.303 293.862,465.516 293.862,469.449L293.862,582.182C293.861,586.116 297.079,589.343 301.015,589.343L462.067,589.343C466.003,589.343 469.222,586.116 469.22,582.182L469.22,469.449C469.22,465.516 465.998,462.303 462.067,462.303L301.015,462.303ZM454.914,487.977L454.914,567.272L409.989,527.225L454.914,487.977ZM320.08,479.429L442.957,479.429L381.526,533.103L320.08,479.429ZM308.168,488.021L353.28,527.441L308.168,567.66L308.168,488.021ZM399.137,536.705L441.876,574.813L321.647,574.813L364.139,536.929L376.805,547.998C379.49,550.343 383.532,550.343 386.218,547.998L399.137,536.705Z"></path>     </g> </svg>
