<svg clip-rule="evenodd" fill-rule="evenodd" stroke-linejoin="round" stroke-miterlimit="2" version="1.1" viewBox="0 0 2186.8 2186.9" xml:space="preserve" xmlns="http://www.w3.org/2000/svg" xmlns:serif="http://www.serif.com/">     <g transform="translate(-662.58 -145.27)">         <g transform="matrix(-4.1667 0 0 4.1667 1756 2332.1)">             <g serif:id="katman 1">                 <path d="m0-524.84c-203.96 0-262.42 58.316-262.42 262.42 0 204.11 58.462 262.42 262.42 262.42s262.42-58.316 262.42-262.42c0-204.11-58.316-262.42-262.42-262.42zm33.884 421.75h-18.744v-47.903h-6.489c-41.605 0-78.846-18.867-102.79-48.359-28.357-23.059-46.446-57.595-46.446-96.389 0-69.921 58.759-126 130.49-126h113.19v18.744h18.744v318.66h-87.955v-18.744zm50.466-299.91h-94.443c-62.052 0-111.75 48.352-111.75 107.26s49.694 107.26 111.75 107.26h43.977v66.647h50.466v-281.17zm-50.466 47.903v118.72h-43.977c-33.507 0-61.28-26.245-61.28-59.358 0-33.112 27.773-59.357 61.28-59.357h43.977zm-18.744 37.489h-6.489c-23.829 0-42.536 18.513-42.536 40.612 0 6.128 1.439 11.98 4.026 17.238 5.876 2.951 12.589 4.631 19.766 4.631h25.233v-62.481z"/>             </g>         </g>     </g> </svg>
